<svg width="24" height="24" viewBox="0 0 24 24" fill="none" xmlns="http://www.w3.org/2000/svg">
<path d="M12.75 11.25C12.3281 11.25 12 11.625 12 12C12 12.4219 12.3281 12.75 12.75 12.75C13.125 12.75 13.5 12.375 13.5 12C13.5 11.625 13.125 11.25 12.75 11.25ZM18 10.5H17.3906C16.5 10.5 15.8906 9.75 15.8906 8.95312C15.8906 8.625 16.0312 8.20312 16.3594 7.92188L16.7344 7.5C16.875 7.35938 16.9688 7.17188 16.9688 6.98438C16.9688 6.60938 16.6406 6.28125 16.2188 6.28125C16.0312 6.28125 15.8438 6.375 15.7031 6.51562L15.2812 6.89062C15 7.21875 14.625 7.35938 14.25 7.35938C13.4531 7.35938 12.7031 6.75 12.7031 5.85938V5.25C12.7031 4.82812 12.375 4.5 11.9531 4.5C11.5781 4.5 11.2031 4.82812 11.2031 5.25V5.8125C11.2031 6.70312 10.5 7.3125 9.70312 7.3125C9.32812 7.3125 8.95312 7.17188 8.67188 6.84375L8.25 6.51562C8.10938 6.32812 7.92188 6.28125 7.73438 6.28125C7.3125 6.28125 6.98438 6.60938 6.98438 6.98438C6.98438 7.17188 7.07812 7.35938 7.21875 7.5L7.59375 7.92188C7.92188 8.25 8.0625 8.625 8.0625 9C8.0625 9.79688 7.45312 10.5469 6.5625 10.5469H6C5.57812 10.5469 5.25 10.875 5.25 11.2969C5.25 11.6719 5.57812 12.0469 6 12.0469H6.5625C7.45312 12.0469 8.0625 12.75 8.0625 13.5469C8.0625 13.9219 7.92188 14.2969 7.59375 14.5781L7.21875 15C7.07812 15.1406 6.98438 15.3281 6.98438 15.5156C6.98438 15.9375 7.3125 16.2188 7.73438 16.2188C7.92188 16.2188 8.10938 16.1719 8.25 15.9844L8.67188 15.6094C8.95312 15.2812 9.32812 15.1406 9.70312 15.1406C10.0312 15.1406 11.25 15.4219 11.25 16.6406V17.25C11.25 17.625 11.5781 18 12 18C12.375 18 12.75 17.625 12.75 17.25V16.6406C12.75 15.75 13.4531 15.1406 14.25 15.1406C14.625 15.1406 15 15.2812 15.2812 15.6094L15.7031 15.9844C15.8438 16.1719 16.0312 16.2188 16.2188 16.2188C16.6406 16.2188 16.9688 15.8906 16.9688 15.5156C16.9688 15.3281 16.875 15.1406 16.7344 15L16.3594 14.5781C16.0312 14.2969 15.8906 13.9219 15.8906 13.5469C15.8906 12.75 16.5 12 17.3906 12H18C18.375 12 18.75 11.6719 18.75 11.25C18.75 10.875 18.375 10.5 18 10.5ZM14.3906 13.5469C14.3906 13.5938 14.3906 13.6406 14.3906 13.6875C14.3438 13.6875 14.2969 13.6875 14.25 13.6875C13.3594 13.6875 12.5156 14.1094 11.9531 14.7188C11.4375 14.1094 10.6406 13.6875 9.70312 13.6875C9.65625 13.6875 9.60938 13.6875 9.51562 13.6875C9.5625 13.6406 9.5625 13.5938 9.5625 13.5469C9.5625 12.8438 9.28125 11.9531 8.53125 11.2969C9.14062 10.7344 9.5625 9.89062 9.5625 9C9.5625 8.95312 9.5625 8.90625 9.51562 8.85938C9.60938 8.85938 9.65625 8.85938 9.70312 8.85938C10.5938 8.85938 11.4375 8.4375 11.9531 7.82812C12.5156 8.4375 13.3125 8.85938 14.25 8.85938C14.2969 8.85938 14.3438 8.85938 14.3906 8.85938C14.3906 8.90625 14.3906 8.95312 14.3906 9C14.3906 9.84375 14.7656 10.6875 15.4219 11.2969C14.8125 11.8125 14.3906 12.6562 14.3906 13.5469ZM11.25 9.75C10.8281 9.75 10.5 10.0781 10.5 10.5C10.5 10.875 10.8281 11.25 11.25 11.25C11.625 11.25 12 10.9219 12 10.5C12 10.125 11.625 9.75 11.25 9.75ZM21.8438 3.9375L12.8438 0.1875C12.6094 0.09375 12.2344 0 12 0C11.7188 0 11.3438 0.09375 11.1094 0.1875L2.10938 3.9375C1.26562 4.3125 0.75 5.10938 0.75 6C0.75 18.0938 9.60938 24 11.9531 24C14.3906 24 23.25 18 23.25 6C23.25 5.10938 22.6875 4.3125 21.8438 3.9375ZM11.9531 22.5C9.9375 22.5 2.25 16.6875 2.25 6C2.25 5.67188 2.39062 5.39062 2.67188 5.29688L11.6719 1.54688C11.7656 1.5 11.9062 1.5 12 1.5C12.0469 1.5 12.2344 1.5 12.2812 1.54688L21.2812 5.29688C21.5625 5.4375 21.75 5.71875 21.75 6C21.75 18.2812 12.5625 22.5 11.9531 22.5Z" fill="#5C8EE6"/>
</svg>
