<svg width="24" height="24" viewBox="0 0 24 24" fill="none" xmlns="http://www.w3.org/2000/svg">
<path d="M22.875 3.75C23.4844 3.75 24 3.28125 24 2.625C24 2.01562 23.4844 1.5 22.875 1.5C22.2188 1.5 21.75 2.01562 21.75 2.625C21.75 3.28125 22.2188 3.75 22.875 3.75ZM7.5 11.25C5.39062 11.25 3.75 12.9375 3.75 15C3.75 17.1094 5.39062 18.75 7.5 18.75C9.5625 18.75 11.25 17.1094 11.25 15C11.25 12.9375 9.5625 11.25 7.5 11.25ZM7.5 17.25C6.23438 17.25 5.25 16.2656 5.25 15C5.25 13.7812 6.23438 12.75 7.5 12.75C8.71875 12.75 9.75 13.7812 9.75 15C9.75 16.2656 8.71875 17.25 7.5 17.25ZM22.875 10.5C22.2188 10.5 21.75 11.0156 21.75 11.625C21.75 12.2812 22.2188 12.75 22.875 12.75C23.4844 12.75 24 12.2812 24 11.625C24 11.0156 23.4844 10.5 22.875 10.5ZM18.375 1.5C17.7188 1.5 17.25 2.01562 17.25 2.625C17.25 3.28125 17.7188 3.75 18.375 3.75C18.9844 3.75 19.5 3.28125 19.5 2.625C19.5 2.01562 18.9844 1.5 18.375 1.5ZM10.5 6V1.5C10.5 0.703125 9.79688 0 9 0H6C5.15625 0 4.5 0.703125 4.5 1.5V6C2.01562 6 0 8.01562 0 10.5V21C0 22.6875 1.3125 24 3 24H12C13.6406 24 15 22.6875 15 21V10.5C15 8.01562 12.9844 6 10.5 6ZM6 1.5H9V6H6V1.5ZM13.5 21C13.5 21.8438 12.7969 22.5 12 22.5H3C2.15625 22.5 1.5 21.8438 1.5 21V10.5C1.5 8.85938 2.8125 7.5 4.5 7.5H10.5C12.1406 7.5 13.5 8.85938 13.5 10.5V21ZM22.875 6C22.2188 6 21.75 6.51562 21.75 7.125C21.75 7.78125 22.2188 8.25 22.875 8.25C23.4844 8.25 24 7.78125 24 7.125C24 6.51562 23.4844 6 22.875 6ZM18.375 6C17.7188 6 17.25 6.51562 17.25 7.125C17.25 7.78125 17.7188 8.25 18.375 8.25C18.9844 8.25 19.5 7.78125 19.5 7.125C19.5 6.51562 18.9844 6 18.375 6ZM13.875 1.5C13.2188 1.5 12.75 2.01562 12.75 2.625C12.75 3.28125 13.2188 3.75 13.875 3.75C14.4844 3.75 15 3.28125 15 2.625C15 2.01562 14.4844 1.5 13.875 1.5Z" fill="#5C8EE6"/>
</svg>
