<svg width="27" height="24" viewBox="0 0 27 24" fill="none" xmlns="http://www.w3.org/2000/svg">
<path d="M26.9531 23.1562C26.9531 22.7812 26.6719 22.4531 26.2969 22.4062C23.5781 22.0312 23.2969 20.2031 22.4531 20.2031C22.2188 20.2031 21.9844 20.2969 21.8438 20.4844C20.9531 21.7031 19.5 22.4531 17.9531 22.4531C16.3594 22.4531 14.9062 21.7031 14.0625 20.4844C13.9219 20.2969 13.6875 20.2031 13.4531 20.2031C13.2188 20.2031 12.9844 20.2969 12.8438 20.4844C11.9531 21.7031 10.5 22.4531 8.95312 22.4531C5.76562 22.4531 5.34375 20.25 4.5 20.25C4.21875 20.25 3.98438 20.3438 3.84375 20.5312C2.10938 22.9688 0 21.8438 0 23.2031C0 23.8125 0.609375 23.9531 0.703125 23.9531C1.21875 23.9531 3.04688 23.5781 4.45312 22.125C5.625 23.2969 7.26562 23.9531 9 23.9531C10.7344 23.9531 12.3281 23.2969 13.5 22.125C14.625 23.2969 16.2656 24 18 24C19.6875 24 21.3281 23.2969 22.5 22.125C23.9062 23.5781 25.7812 23.9531 26.25 23.9531C26.8594 23.9062 26.9531 23.2969 26.9531 23.1562ZM11.0156 8.95312C10.3125 8.95312 9.75 9.46875 9.75 10.1719V15.1875C9.75 15.8906 10.2656 16.4531 11.0156 16.4531H15.9844C16.6875 16.4531 17.25 15.8906 17.25 15.1875V10.1719C17.25 9.51562 16.7344 8.95312 15.9844 8.95312H11.0156ZM15.75 14.9531H11.25V10.4531H15.7031V14.9531H15.75ZM0.75 12.7031C0.890625 12.7031 1.07812 12.6094 1.21875 12.5156L3 10.9688V17.2031C3 17.5781 3.32812 17.9062 3.70312 17.9062C4.07812 17.9062 4.40625 17.5781 4.40625 17.2031V9.70312C4.40625 9.65625 4.40625 9.65625 4.35938 9.65625L13.5 1.73438L22.5 9.65625C22.5 9.70312 22.4531 9.70312 22.4531 9.70312V17.2031C22.4531 17.5781 22.8281 17.9062 23.2031 17.9062C23.5781 17.9062 23.9062 17.5781 23.9062 17.2031V10.9688L25.6406 12.5156C25.7812 12.6094 25.9688 12.7031 26.1562 12.7031C26.5781 12.7031 26.9062 12.3281 26.9062 11.9531C26.9062 11.7188 26.8125 11.5312 26.625 11.4375L23.9062 9V2.25C23.9062 1.82812 23.5781 1.5 23.2031 1.5H18.7031C18.3281 1.5 18 1.875 18 2.25V3.70312L13.9688 0.140625C13.8281 0.046875 13.6406 0 13.5 0C13.3125 0 13.125 0.046875 12.9844 0.140625L0.234375 11.3906C0.046875 11.5781 0 11.7656 0 11.9531C0 12.375 0.328125 12.7031 0.75 12.7031ZM19.4531 2.95312H22.4062V7.64062L19.4531 4.96875V2.95312Z" fill="#5C8EE6"/>
</svg>
