<svg width="16" height="12" viewBox="0 0 16 12" fill="none" xmlns="http://www.w3.org/2000/svg">
<path d="M0.3125 3.96875C1.03125 4.53125 1.9375 5.21875 5.125 7.53125C5.75 8 6.90625 9.03125 8 9.03125C9.125 9.03125 10.25 8 10.9062 7.53125C14.0938 5.21875 15 4.53125 15.7188 3.96875C15.8438 3.875 16 3.96875 16 4.125V10.5C16 11.3438 15.3438 12 14.5 12H1.5C0.6875 12 0 11.3438 0 10.5V4.125C0 3.96875 0.1875 3.875 0.3125 3.96875ZM8 8C7.28125 8.03125 6.25 7.09375 5.71875 6.71875C1.5625 3.71875 1.25 3.4375 0.3125 2.6875C0.125 2.5625 0 2.34375 0 2.09375V1.5C0 0.6875 0.6875 0 1.5 0H14.5C15.3438 0 16 0.6875 16 1.5V2.09375C16 2.34375 15.9062 2.5625 15.7188 2.6875C14.7812 3.4375 14.4688 3.71875 10.3125 6.71875C9.78125 7.09375 8.75 8.03125 8 8Z" fill="#5C8EE6"/>
</svg>
