<svg width="20" height="12" viewBox="0 0 20 12">
<path d="M19.4439 10.7569C18.6455 9.32 16.5889 7.59347 15.7398 6.84216C15.5074 6.63646 15.4826 6.28057 15.694 6.05309C17.3144 4.3119 18.6104 2.31123 19.0565 1.1023C19.2533 0.568255 18.8459 0.00399859 18.2719 0.00399859H16.6044C16.0548 0.00399859 15.7331 0.201266 15.5799 0.515384C14.2332 3.27491 13.078 4.46918 12.2694 5.16717C11.8167 5.55815 11.1107 5.23426 11.1107 4.63934C11.1107 3.49306 11.1107 2.01133 11.1107 0.960569C11.1107 0.450961 10.6939 0.0386537 10.1799 0.0386537L7.13379 0.00399859C6.75036 0.00399859 6.53132 0.438076 6.76147 0.742419L7.26441 1.4644C7.45368 1.71454 7.55587 2.01888 7.55587 2.33122L7.55321 5.58258C7.55321 6.14817 6.86766 6.42453 6.46068 6.02821C5.08381 4.68733 3.88909 1.94913 3.45901 0.639787C3.33461 0.260802 2.97962 0.00488718 2.57709 0.00399859L0.934523 0C0.318283 0 -0.132233 0.58425 0.0352665 1.1725C1.5361 6.44052 4.61552 11.4522 10.1035 11.9956C10.6442 12.0489 11.1107 11.6135 11.1107 11.0745V9.36577C11.1107 8.87571 11.495 8.45452 11.9891 8.44207C12.0064 8.44163 12.0237 8.44163 12.041 8.44163C13.4926 8.44163 15.1182 10.5543 15.6869 11.5424C15.8504 11.8267 16.1561 12 16.4867 12H18.6962C19.3408 12 19.7545 11.3162 19.4439 10.7569Z" fill="#5C8EE6"/>
</svg>
