<svg width="12" height="12" viewBox="0 0 12 12" xmlns="http://www.w3.org/2000/svg">
<path d="M10.9221 1.94626L6.41988 0.0703468C6.27918 0.0234489 6.13849 0 5.9978 0C5.83365 0 5.69296 0.0234489 5.55227 0.0703468L1.05007 1.94626C0.627986 2.13385 0.370047 2.53249 0.370047 2.97802C0.370047 7.64436 3.04323 10.8569 5.55227 11.9121C5.83365 12.0293 6.13849 12.0293 6.41988 11.9121C8.43649 11.0679 11.6255 8.18368 11.6255 2.97802C11.6255 2.53249 11.3442 2.13385 10.9221 1.94626ZM9.16157 4.72512L5.50537 8.14349C5.36467 8.30763 5.10673 8.30763 4.96604 8.14349L2.95613 6.37141C2.81544 6.23072 2.81544 5.99623 2.95613 5.85554L3.24087 5.5708C3.38156 5.43011 3.61605 5.43011 3.75675 5.5708L5.30254 6.91226L8.41607 3.97962C8.55677 3.83893 8.79126 3.83893 8.93195 3.97962L9.16157 4.20924C9.30227 4.34994 9.30227 4.58443 9.16157 4.72512Z" fill="#828A99"/>
</svg>
